<svg id="Capa_1" enable-background="new 0 0 512 512" height="512" viewBox="0 0 512 512" width="512" xmlns="http://www.w3.org/2000/svg"><g><path d="m435.81 243.692c20.634-15.624 33.995-40.374 33.995-68.192v-41.79c0-18.358-11.381-34.098-27.454-40.563l25.454-26.033v-67.114h-203v24.408h-89v-24.408h-154.61v214h143.949c15.627 12.731 32.956 23.093 51.74 30.909-32.763 42.927-54.079 101.342-54.079 150.373 0 44.177 17.273 76.201 51.34 95.182 26.372 14.693 62.17 21.536 112.66 21.536s86.288-6.843 112.66-21.537c34.067-18.981 51.34-51.004 51.34-95.182 0-50.182-21.561-108.525-54.995-151.589zm1.995-188.807-34.334 35.115h-92.24c-9.057 0-16.425-7.368-16.425-16.425v-43.575h143v24.885zm-173-.477v19.167c0 25.599 20.826 46.425 46.425 46.425h114.864c7.56 0 13.71 6.15 13.71 13.71v41.79c0 30.603-24.897 55.5-55.5 55.5h-86.89c-45.479 0-88.37-16.799-121.61-47.444v-129.148zm-119 129.592h-94.61v-154h94.61zm279.058 280.257c-21.429 11.939-53.504 17.743-98.058 17.743s-76.629-5.804-98.058-17.743c-24.521-13.663-35.942-35.58-35.942-68.975 0-46.11 21.792-101.958 54.515-140.346 16.326 4.026 33.081 6.064 50.095 6.064h86.89c8.379 0 16.471-1.232 24.129-3.49 31.251 38.012 52.371 92.751 52.371 137.771 0 33.396-11.421 55.313-35.942 68.976z"/><path d="m325.317 332.728c13.365-4.428 26.572 6.367 35.584 10.593l14.236-26.407c-10.7-5.481-17.637-10.78-31.58-13.932v-14.982h-30v17.148c-24.53 9.443-34.095 45.597-12.488 62.46 8.987 7.049 21.661 12.062 34.018 16.43 5.852 2.068 8.332 6.014 7.372 11.726-.738 4.389-4.517 11.833-14.001 11.896-9.894.061-12.222-.3-19.441-5.024l-12.553-8.211-16.423 25.105 12.552 8.212c7.886 5.159 14.138 7.727 20.965 8.939v16.319h30v-18.015c36.184-12.87 40.355-65.885 1.528-79.232-9.47-3.347-19.905-7.361-25.502-11.751-1.921-3.184 1.024-9.575 5.733-11.274z"/></g></svg>