<svg id="_x33_0" enable-background="new 0 0 64 64" height="512" viewBox="0 0 64 64" width="512" xmlns="http://www.w3.org/2000/svg"><path d="m63 17v-14c0-1.103-.897-2-2-2h-14c-1.103 0-2 .897-2 2v14c0 1.103.897 2 2 2h5l-6 8h5v10.535c-4.499-3.508-9.991-5.805-16-6.383v-4.152h5l-6-8h5c1.103 0 2-.897 2-2v-14c0-1.103-.897-2-2-2h-14c-1.103 0-2 .897-2 2v14c0 1.103.897 2 2 2h5l-6 8h5v4.152c-6.009.579-11.501 2.876-16 6.383v-10.535h5l-6-8h5c1.103 0 2-.897 2-2v-14c0-1.103-.897-2-2-2h-14c-1.103 0-2 .897-2 2v14c0 1.103.897 2 2 2h5l-6 8h5v16.716c-3.772 5.147-6 11.478-6 18.284v1h62v-1c0-6.806-2.228-13.137-6-18.284v-16.716h5l-6-8h5c1.103 0 2-.897 2-2zm-10-14h2v2h-2zm-6 0h4v4h6v-4h4l.001 14h-14.001zm-16 0h2v2h-2zm-6 0h4v4h6v-4h4l.001 14h-14.001zm6 38v-16h-3l4-5.333 4 5.333h-3v16h2v-7.841c4.513.464 8.707 1.967 12.356 4.258l-.852 2.131c-.188.47-.54.853-.992 1.078l-3.702 1.851c-1.061.531-1.834 1.496-2.122 2.646l-1.16 4.639c-.204.816-.874 1.421-1.707 1.539l-3.092.441c-1.532.22-2.788 1.268-3.277 2.736-.168.505-.883.677-1.262.298l-1.139-1.14c-.097-.097-.167-.219-.2-.353l-.574-2.298c-.264-1.052-.92-1.938-1.85-2.496l-2.665-1.599c-.534-.32-.891-.857-.979-1.475l-.587-4.115c-.173-1.216-.877-2.275-1.93-2.906l-2.133-1.28c3.533-2.121 7.556-3.51 11.868-3.954v7.84zm-15.728-2.671 2.965 1.779c.534.32.891.857.979 1.475l.588 4.117c.173 1.216.877 2.275 1.93 2.906l2.664 1.599c.472.283.806.733.939 1.267l.574 2.297c.121.486.373.931.727 1.283l1.138 1.139c.522.521 1.216.809 1.954.809 1.19 0 2.244-.76 2.621-1.89.249-.745.886-1.276 1.663-1.388l3.091-.441c1.642-.234 2.962-1.426 3.365-3.035l1.16-4.638c.146-.584.539-1.074 1.077-1.344l3.7-1.85c.89-.444 1.584-1.199 1.955-2.124l.691-1.728c3.186 2.328 5.877 5.288 7.894 8.686l-3.855.482c-1.727.215-3.201 1.353-3.848 2.969l-.33.824c-.382.955-1.254 1.619-2.276 1.731l-3.382.376c-2.427.271-4.256 2.315-4.256 4.756 0 .516.083 1.025.246 1.513l.367 1.101h-12.892l-.176-.527c-.482-1.447-1.654-2.531-3.13-2.899l-.172-.043c-.875-.219-1.554-.898-1.772-1.772-.398-1.593-1.635-2.83-3.228-3.228l-3.398-.85c-1.086-.272-1.845-1.243-1.845-2.364v-9.202c.726-.632 1.485-1.227 2.272-1.786zm-6.272-35.329h2v2h-2zm-6 0h4v4h6v-4h4l.001 14h-14.001zm3 22 4-5.333 4 5.333h-3v14.234c-.697.645-1.364 1.32-2 2.025v-16.259zm5 17.034v7.283c0 2.04 1.382 3.81 3.36 4.303l3.397.85c.875.219 1.554.898 1.772 1.772.398 1.593 1.635 2.83 3.226 3.228l.173.044c.773.193 1.383.748 1.669 1.486h-21.58c.251-7.304 3.237-13.97 7.983-18.966zm30.721 18.966-.578-1.735c-.095-.284-.143-.579-.143-.879 0-1.42 1.064-2.609 2.476-2.766l3.381-.376c1.757-.194 3.257-1.335 3.913-2.977l.33-.824c.376-.94 1.233-1.603 2.238-1.728l4.636-.58c1.795 3.607 2.863 7.628 3.009 11.864h-19.262zm13.279-36v16.259c-.636-.705-1.303-1.381-2-2.025v-14.234h-3l4-5.333 4 5.333z"/></svg>