<?xml version="1.0" encoding="utf-8"?>
<!-- Generator: Adobe Illustrator 16.0.0, SVG Export Plug-In . SVG Version: 6.00 Build 0)  -->
<!DOCTYPE svg PUBLIC "-//W3C//DTD SVG 1.1//EN" "http://www.w3.org/Graphics/SVG/1.1/DTD/svg11.dtd">
<svg version="1.1" id="Capa_1" xmlns="http://www.w3.org/2000/svg" xmlns:xlink="http://www.w3.org/1999/xlink" x="0px" y="0px"
	 width="600px" height="500px" viewBox="0 0 600 500" enable-background="new 0 0 600 500" xml:space="preserve">
<g>
	<g>
		<g>
			<path fill="#B1B3B4" d="M323.985,139.027c24.291,27.57,39.438,16.899,66.782,5.663c24.384-10.031,26.048,18.714,49.135,15.588
				c13.638-1.865,17.957-9.013,28.506-15.963c12.946-8.54,24.04,12.526,33.174,16.214c20.557,8.307,31.281-25.506,48.418-18.534
				c-22.224-9.04-31.763,32.168-54.616,10.414c-29.344-27.926-35.916,13.805-65.903,5.094c-19.693-5.712-22.944-29.449-49.708-8.751
				C361.481,162.899,334.61,151.066,323.985,139.027C329.245,145,323.985,139.027,323.985,139.027z"/>
			<path fill="#B1B3B4" d="M323.985,146.671c24.291,27.569,39.438,16.891,66.782,5.653c24.384-10.036,26.048,18.724,49.135,15.588
				c13.638-1.86,17.957-9.009,28.506-15.958c12.946-8.544,24.04,12.517,33.174,16.21c20.557,8.31,31.281-25.516,48.418-18.539
				c-22.224-9.035-31.763,32.173-54.616,10.418c-29.344-27.935-35.916,13.796-65.903,5.089
				c-19.693-5.706-22.944-29.443-49.708-8.742C361.481,170.538,334.61,158.71,323.985,146.671
				C329.245,152.635,323.985,146.671,323.985,146.671z"/>
			<path fill="#B1B3B4" d="M323.985,154.3c24.291,27.57,39.438,16.9,66.782,5.654c24.384-10.027,26.048,18.732,49.135,15.584
				c13.638-1.856,17.957-9,28.506-15.958c12.946-8.526,24.04,12.526,33.174,16.219c20.557,8.314,31.281-25.493,48.418-18.53
				c-22.224-9.035-31.763,32.164-54.616,10.409c-29.344-27.93-35.916,13.8-65.903,5.094c-19.693-5.701-22.944-29.448-49.708-8.751
				C361.481,178.177,334.61,166.345,323.985,154.3C329.245,160.273,323.985,154.3,323.985,154.3z"/>
		</g>
		<g>
			<path fill="#39A9DC" d="M50,184.167h8.997v1.748h-7.2v5.63h7.2v1.762h-7.2v8.823H50V184.167z"/>
			<path fill="#39A9DC" d="M77.162,183.708c2.727,0,5.002,0.914,6.844,2.716c1.831,1.824,2.749,4.062,2.749,6.72
				c0,2.626-0.917,4.855-2.741,6.688c-1.838,1.833-4.053,2.748-6.693,2.748c-2.676,0-4.921-0.91-6.754-2.738
				c-1.837-1.82-2.746-4.031-2.746-6.616c0-1.722,0.415-3.325,1.244-4.807c0.835-1.472,1.977-2.625,3.421-3.458
				C73.919,184.126,75.491,183.708,77.162,183.708z M77.256,185.464c-1.344,0-2.601,0.343-3.792,1.027
				c-1.191,0.698-2.119,1.631-2.779,2.802c-0.678,1.17-1.02,2.481-1.02,3.928c0,2.129,0.75,3.941,2.234,5.405
				c1.473,1.477,3.259,2.207,5.357,2.207c1.393,0,2.671-0.343,3.858-1.014c1.191-0.667,2.112-1.59,2.788-2.771
				c0.652-1.175,0.984-2.481,0.984-3.914c0-1.423-0.332-2.72-0.984-3.864c-0.676-1.153-1.613-2.081-2.817-2.779
				C79.876,185.807,78.604,185.464,77.256,185.464z"/>
			<path fill="#39A9DC" d="M96.843,202.13v-17.963h0.393l11.964,13.761v-13.761h1.771v17.963h-0.401l-11.864-13.611v13.611H96.843z"
				/>
			<path fill="#39A9DC" d="M121.824,202.13v-17.963h3.726c2.693,0,4.637,0.211,5.851,0.64c1.741,0.608,3.107,1.676,4.089,3.175
				c0.975,1.514,1.466,3.307,1.466,5.382c0,1.802-0.374,3.382-1.16,4.757c-0.781,1.369-1.776,2.378-3.029,3.036
				c-1.239,0.658-2.993,0.973-5.231,0.973H121.824z M123.543,200.437h2.079c2.484,0,4.216-0.163,5.176-0.478
				c1.355-0.433,2.4-1.23,3.177-2.369c0.78-1.145,1.169-2.532,1.169-4.188c0-1.739-0.425-3.226-1.263-4.451
				c-0.831-1.216-2.011-2.063-3.502-2.526c-1.13-0.33-2.986-0.509-5.562-0.509h-1.273V200.437z"/>
			<path fill="#39A9DC" d="M155.484,183.708c2.713,0,4.998,0.914,6.835,2.716c1.824,1.824,2.751,4.062,2.751,6.72
				c0,2.626-0.916,4.855-2.751,6.688c-1.826,1.833-4.063,2.748-6.688,2.748c-2.673,0-4.916-0.91-6.747-2.738
				c-1.844-1.82-2.741-4.031-2.741-6.616c0-1.722,0.401-3.325,1.236-4.807c0.838-1.472,1.959-2.625,3.423-3.458
				C152.236,184.126,153.811,183.708,155.484,183.708z M155.563,185.464c-1.331,0-2.588,0.343-3.781,1.027
				c-1.191,0.698-2.122,1.631-2.793,2.802c-0.664,1.17-1.006,2.481-1.006,3.928c0,2.129,0.731,3.941,2.223,5.405
				c1.482,1.477,3.263,2.207,5.357,2.207c1.394,0,2.682-0.343,3.858-1.014c1.195-0.667,2.126-1.59,2.792-2.771
				c0.664-1.175,0.979-2.481,0.979-3.914c0-1.423-0.315-2.72-0.979-3.864c-0.667-1.153-1.611-2.081-2.815-2.779
				C158.193,185.807,156.912,185.464,155.563,185.464z"/>
			<path fill="#39A9DC" d="M188.644,184.167h3.591c1.984,0,3.351,0.081,4.049,0.243c1.076,0.239,1.937,0.757,2.604,1.567
				c0.675,0.803,1.006,1.788,1.006,2.969c0,0.978-0.232,1.833-0.691,2.581c-0.466,0.739-1.117,1.297-1.974,1.68
				c-0.844,0.375-2.04,0.568-3.548,0.586l6.463,8.337h-2.209l-6.488-8.337h-0.998v8.337h-1.806V184.167z M190.45,185.915v6.112
				l3.092,0.018c1.207,0,2.082-0.109,2.662-0.325c0.59-0.234,1.026-0.598,1.343-1.107c0.338-0.496,0.483-1.059,0.483-1.677
				c0-0.617-0.146-1.148-0.483-1.657c-0.325-0.477-0.752-0.83-1.292-1.049c-0.526-0.207-1.412-0.315-2.637-0.315H190.45z"/>
			<path fill="#39A9DC" d="M210.231,184.167h10.295v1.748h-8.489v5.63h8.418v1.762h-8.418v7.066h8.418v1.757h-10.224V184.167z"/>
			<path fill="#39A9DC" d="M247.447,187.176l-1.39,1.315c-1.002-0.991-2.1-1.721-3.284-2.238c-1.195-0.5-2.375-0.761-3.493-0.761
				c-1.407,0-2.756,0.347-4.031,1.04c-1.279,0.689-2.254,1.635-2.957,2.801c-0.708,1.194-1.052,2.455-1.052,3.771
				c0,1.356,0.344,2.639,1.09,3.846c0.728,1.225,1.723,2.184,3.002,2.882c1.279,0.68,2.685,1.041,4.208,1.041
				c1.839,0,3.405-0.519,4.69-1.567c1.273-1.036,2.022-2.397,2.266-4.059h-5.731v-1.729h7.748c-0.014,2.778-0.838,4.981-2.471,6.616
				c-1.633,1.635-3.82,2.445-6.56,2.445c-3.32,0-5.938-1.125-7.896-3.391c-1.491-1.748-2.216-3.752-2.216-6.045
				c0-1.711,0.405-3.297,1.272-4.757c0.854-1.472,2.022-2.603,3.518-3.432c1.484-0.833,3.167-1.248,5.065-1.248
				c1.518,0,2.948,0.27,4.293,0.833C244.868,185.086,246.169,185.96,247.447,187.176z"/>
			<path fill="#39A9DC" d="M258.157,184.167h1.808v17.963h-1.808V184.167z"/>
			<path fill="#39A9DC" d="M279.105,183.708c2.715,0,5.014,0.914,6.837,2.716c1.829,1.824,2.739,4.062,2.739,6.72
				c0,2.626-0.902,4.855-2.721,6.688c-1.842,1.833-4.072,2.748-6.707,2.748c-2.661,0-4.919-0.91-6.743-2.738
				c-1.841-1.82-2.747-4.031-2.747-6.616c0-1.722,0.418-3.325,1.251-4.807c0.829-1.472,1.964-2.625,3.409-3.458
				C275.862,184.126,277.431,183.708,279.105,183.708z M279.187,185.464c-1.333,0-2.593,0.343-3.782,1.027
				c-1.181,0.698-2.118,1.631-2.789,2.802c-0.675,1.17-1.004,2.481-1.004,3.928c0,2.129,0.738,3.941,2.225,5.405
				c1.477,1.477,3.256,2.207,5.351,2.207c1.406,0,2.689-0.343,3.874-1.014c1.18-0.667,2.107-1.59,2.774-2.771
				c0.667-1.175,1-2.481,1-3.914c0-1.423-0.334-2.72-1-3.864c-0.667-1.153-1.594-2.081-2.801-2.779
				C281.821,185.807,280.556,185.464,279.187,185.464z"/>
			<path fill="#39A9DC" d="M298.78,202.13v-17.963h0.4l11.955,13.761v-13.761h1.778v17.963h-0.4l-11.864-13.611v13.611H298.78z"/>
			<path fill="#39A9DC" d="M331.098,184.167l8.395,17.963h-1.938l-2.833-5.919h-7.743l-2.792,5.919h-2.013l8.499-17.963H331.098z
				 M330.875,187.982l-3.076,6.495h6.139L330.875,187.982z"/>
			<path fill="#39A9DC" d="M348.753,184.167h1.797V200.4h6.923v1.73h-8.72V184.167z"/>
			<path fill="#39A9DC" d="M380.196,202.13v-17.963h3.721c2.693,0,4.652,0.211,5.859,0.64c1.748,0.608,3.099,1.676,4.086,3.175
				c0.986,1.514,1.473,3.307,1.473,5.382c0,1.802-0.393,3.382-1.168,4.757c-0.778,1.369-1.788,2.378-3.03,3.036
				c-1.244,0.658-2.982,0.973-5.221,0.973H380.196z M381.925,200.437h2.077c2.472,0,4.198-0.163,5.18-0.478
				c1.333-0.433,2.392-1.23,3.175-2.369c0.775-1.145,1.158-2.532,1.158-4.188c0-1.739-0.415-3.226-1.252-4.451
				c-0.842-1.216-2.026-2.063-3.513-2.526c-1.122-0.33-2.979-0.509-5.563-0.509h-1.261V200.437z"/>
			<path fill="#39A9DC" d="M405.311,184.167h10.296v1.748h-8.5v5.63h8.428v1.762h-8.428v7.066h8.428v1.757h-10.225V184.167z"/>
			<path fill="#39A9DC" d="M425.192,184.167h1.797V200.4h6.9v1.73h-8.697V184.167z"/>
			<path fill="#39A9DC" d="M463.977,184.167l8.387,17.963h-1.945l-2.825-5.919h-7.751l-2.798,5.919h-1.985l8.481-17.963H463.977z
				 M463.757,187.982l-3.086,6.495h6.144L463.757,187.982z"/>
			<path fill="#39A9DC" d="M498.965,187.176l-1.406,1.315c-0.999-0.991-2.093-1.721-3.278-2.238c-1.194-0.5-2.369-0.761-3.491-0.761
				c-1.414,0-2.755,0.347-4.031,1.04c-1.274,0.689-2.261,1.635-2.959,2.801c-0.706,1.194-1.045,2.455-1.045,3.771
				c0,1.356,0.352,2.639,1.081,3.846c0.721,1.225,1.738,2.184,2.999,2.882c1.279,0.68,2.699,1.041,4.208,1.041
				c1.855,0,3.404-0.519,4.688-1.567c1.288-1.036,2.036-2.397,2.279-4.059h-5.734v-1.729h7.742
				c-0.008,2.778-0.841,4.981-2.472,6.616c-1.621,1.635-3.823,2.445-6.55,2.445c-3.337,0-5.936-1.125-7.891-3.391
				c-1.481-1.748-2.238-3.752-2.238-6.045c0-1.711,0.419-3.297,1.284-4.757c0.847-1.472,2.021-2.603,3.516-3.432
				c1.479-0.833,3.178-1.248,5.054-1.248c1.528,0,2.964,0.27,4.307,0.833C496.365,185.086,497.676,185.96,498.965,187.176z"/>
			<path fill="#39A9DC" d="M509.985,184.167h1.789v10.851c0,1.279,0.027,2.082,0.081,2.4c0.085,0.703,0.293,1.302,0.622,1.771
				c0.328,0.478,0.833,0.877,1.514,1.202c0.67,0.316,1.346,0.483,2.031,0.483c0.597,0,1.157-0.135,1.702-0.388
				c0.549-0.238,1.018-0.594,1.382-1.041c0.347-0.454,0.63-0.999,0.798-1.629c0.122-0.46,0.181-1.389,0.181-2.798v-10.851h1.8
				v10.851c0,1.581-0.161,2.892-0.485,3.887c-0.298,0.977-0.924,1.842-1.875,2.576c-0.926,0.739-2.066,1.1-3.408,1.1
				c-1.441,0-2.686-0.338-3.726-1.036c-1.021-0.693-1.729-1.608-2.076-2.747c-0.225-0.703-0.329-1.955-0.329-3.779V184.167z"/>
			<path fill="#39A9DC" d="M540.132,184.167l8.377,17.963h-1.932l-2.837-5.919h-7.734l-2.806,5.919h-2.004l8.489-17.963H540.132z
				 M539.912,187.982l-3.091,6.495h6.135L539.912,187.982z"/>
		</g>
	</g>
	<g>
		<path fill="#0B72B5" d="M50.464,133.37c0.779-5.188,0.779-26.155,0.779-28.502V91.829c0-1.563-0.191-25.178-0.385-27.042
			c2.448,0,27.034-1.072,30.956-1.464l0.395,7.545l-22.146,0.49v24.98c1.761,0,15.685-0.585,20.281-0.878l0.284,7.54l-20.565-0.383
			v9.306c0,1.567-0.093,20.074,0.288,21.448H50.464z"/>
		<path fill="#0B72B5" d="M94.951,102.616c0-21.754,15.38-39.383,38.988-39.383c18.517,0,32.531,12.237,32.531,33.402
			c0,15.288-10.198,38.303-38.017,38.303C107.099,134.938,94.951,119.854,94.951,102.616z M156.957,97.13
			c0-17.543-11.56-26.655-24.382-26.655c-17.542,0-28.226,13.909-28.226,30.664c0,14.594,9.605,26.552,24.984,26.552
			C144.032,127.69,156.957,116.426,156.957,97.13z"/>
		<path fill="#0B72B5" d="M194.882,103.4c0,3.721,0.297,28.502,0.493,29.97h-9.502c0.39-2.347,0.186-33.402,0.186-35.465v-8.026
			c0-2.941-0.186-23.228-0.48-25.092c4.603,0,12.837,0.107,20.381,0.986c12.929,1.563,20.278,7.062,20.278,15.386
			c0,8.319-5.59,14.796-13.616,19.881c2.445,3.333,20.085,25.186,22.822,28.124L228,135.131
			c-1.075-1.364-23.117-30.263-26.061-34.379c4.901-2.648,14.7-8.625,14.7-18.229c0-4.417-3.234-10.967-21.757-11.166V103.4z"/>
		<path fill="#0B72B5" d="M241.137,130.141c5.382-9.406,33.6-65.049,35.955-68.778h0.195c8.616,13.908,31.839,58.094,38.506,68.286
			l-8.325,5.481c-1.963-3.716-12.346-23.804-13.431-25.371l-33.988,1.374c-1.185,1.865-9.214,20.769-10.875,24.101L241.137,130.141z
			 M291.096,103.485c-1.067-2.152-13.125-24.97-14.098-26.547c-1.481,2.153-12.738,26.16-13.629,27.728L291.096,103.485z"/>
		<path fill="#0B72B5" d="M381.241,118.083c0,3.729,0.298,12.445,0.298,13.72c-4.406,1.667-13.521,3.135-21.651,3.135
			c-22.237,0-36.452-12.436-36.452-28.606c0-11.071,11.462-33.412,48.5-43.396l1.954,8.517
			c-22.331,4.315-40.753,19.399-40.753,34.983c0,10.179,9.414,21.552,28.805,21.552c4.125,0,8.133-0.69,10.485-1.473v-16.363
			c0-2.842-0.193-6.166-0.297-6.751h9.21c-0.099,2.347-0.099,4.603-0.099,7.541V118.083z"/>
		<path fill="#0B72B5" d="M409.756,88.014c0,15.863,0.69,23.12,4.5,29.885c3.833,6.661,9.901,9.503,16.961,9.503
			c8.423,0,13.814-4.22,17.049-9.319c4.697-7.341,4.797-19.3,4.797-34.677v-3.423c0-6.77-0.397-12.544-0.576-16.17h9.292
			c0,2.153,0.099,8.622,0.099,16.363v4.5c0,18.809-1.08,30.772-8.423,39.884c-5.784,7.044-13.135,10.377-23.517,10.377
			c-5.292,0-15.97-0.783-22.821-11.657c-4.613-7.341-6.271-14.994-6.271-38.798v-5.288c0-4.504,0.09-11.662,0.09-13.909h9.311
			c-0.194,2.536-0.492,7.148-0.492,16.062V88.014z"/>
		<path fill="#0B72B5" d="M471.692,130.141c5.386-9.406,33.605-65.049,35.951-68.778h0.198
			c8.616,13.908,31.844,58.094,38.501,68.286l-8.328,5.481c-1.963-3.716-12.346-23.804-13.427-25.371l-33.992,1.374
			c-1.175,1.865-9.206,20.769-10.882,24.101L471.692,130.141z M521.657,103.485c-1.088-2.152-13.14-24.97-14.111-26.547
			c-1.474,2.153-12.743,26.16-13.612,27.728L521.657,103.485z"/>
	</g>
</g>
</svg>
